# xmcd CD database file
#
# Track frame offsets:
#	150
#	24567
#	46638
#	67625
#	86752
#	114385
#	129568
#	145644
#
# Disc length: 2339 seconds
#
# Revision: 2
# Processed by: cddbd v1.5.1PL2 Copyright (c) Steve Scherf et al.
# Submitted via: CDex 1.51
#
DISCID=5b092108
DTITLE=Bemani - beatmania IIDX V-RARE SOUNDTRACK 12
DYEAR=2005
DGENRE=General Soundtrack
TTITLE0=platoniX/Remixed by Dub Master X - CARRY ON NIGHT (Dub's Old Gamers Remix)
TTITLE1=Tatsh feat.Junko Hirata&Sayaka Minami - Double∞Loving Heart
TTITLE2=Noria - BABY LOVE
TTITLE3=Asami - Strong Woman Featuring DABO
TTITLE4=Bermei.Inazawa Feat. 霜月はるか - 泰東ノ翠霞
TTITLE5=dj chucky - HYPE THE CORE (original long version)
TTITLE6=猫又Master - satellite020712 from "CODED ARMS" (original long version)
TTITLE7=Togo Project feat. Sana Remixed by Midihead - jelly kiss (Midihead's SmackDown Mix)
EXTD=YEAR: 2005
EXTT0=
EXTT1=
EXTT2=
EXTT3=
EXTT4=
EXTT5=
EXTT6=
EXTT7=
PLAYORDER=
